<?xml version="1.0" standalone="no"?>
<!DOCTYPE svg PUBLIC "-//W3C//DTD SVG 20010904//EN"
 "http://www.w3.org/TR/2001/REC-SVG-20010904/DTD/svg10.dtd">
<svg version="1.0" xmlns="http://www.w3.org/2000/svg"
 width="1024.000000pt" height="1024.000000pt" viewBox="0 0 1024.000000 1024.000000"
 preserveAspectRatio="xMidYMid meet">
<metadata>
Created by potrace 1.14, written by Peter Selinger 2001-2017
</metadata>
<g transform="translate(0.000000,1024.000000) scale(0.100000,-0.100000)"
fill="#000000" stroke="none">
<path d="M2987 8324 c-3 -4 -45 -8 -94 -10 -48 -2 -101 -6 -118 -8 -16 -3 -57
-8 -90 -12 -33 -3 -63 -8 -66 -10 -4 -2 -24 -6 -45 -10 -22 -3 -57 -10 -79
-16 -22 -6 -44 -12 -50 -13 -5 -1 -12 -3 -15 -4 -4 -2 -17 -5 -65 -15 -5 -1
-14 -4 -20 -8 -14 -8 -98 -32 -107 -30 -5 1 -8 -2 -8 -7 0 -5 -17 -12 -37 -16
-21 -4 -44 -12 -52 -18 -7 -6 -18 -12 -25 -13 -36 -6 -336 -162 -349 -181 -4
-7 -12 -13 -18 -13 -12 0 -175 -117 -249 -178 -69 -58 -254 -243 -300 -301
-19 -25 -42 -52 -50 -61 -8 -8 -28 -36 -45 -60 -16 -25 -33 -47 -36 -50 -7 -6
-72 -108 -102 -160 -83 -142 -204 -422 -232 -535 -10 -42 -13 -55 -25 -100
-18 -67 -21 -79 -25 -105 -2 -14 -7 -43 -11 -65 -4 -22 -7 -50 -8 -62 0 -13
-2 -23 -5 -23 -4 0 -7 -15 -9 -32 -8 -81 -10 -3128 -3 -3168 5 -25 12 -61 15
-80 3 -19 7 -42 9 -50 2 -8 7 -28 11 -45 4 -16 11 -39 16 -50 5 -11 14 -38 21
-60 23 -78 141 -295 160 -295 5 0 9 -7 9 -15 0 -8 5 -15 10 -15 6 0 10 -5 10
-11 0 -22 159 -180 245 -244 22 -16 42 -31 45 -34 16 -18 257 -139 290 -145 3
-1 11 -5 18 -9 6 -5 12 -6 12 -2 0 3 9 1 21 -5 11 -6 28 -13 37 -15 9 -2 38
-8 65 -14 52 -12 86 -18 162 -27 48 -6 60 -6 115 -1 14 2 33 -1 42 -5 9 -5 19
-4 23 2 4 6 15 6 30 0 14 -5 25 -6 25 -2 0 9 65 6 80 -3 6 -3 10 -2 10 4 0 7
8 7 25 1 15 -6 25 -6 25 0 0 5 12 5 28 1 15 -4 39 -4 55 0 15 4 27 3 27 -2 0
-6 7 -6 18 0 11 6 24 6 34 0 10 -6 19 -6 23 0 4 7 15 7 30 1 16 -6 25 -6 25 0
0 6 9 6 25 0 16 -6 25 -6 25 0 0 6 9 6 25 0 14 -5 25 -6 25 -2 0 9 65 6 80 -3
6 -3 10 -2 10 4 0 7 8 7 25 1 14 -5 25 -6 25 -1 0 5 12 6 28 2 15 -4 39 -4 55
0 16 4 27 4 27 -2 0 -6 6 -6 18 0 11 6 24 6 34 0 10 -6 19 -6 23 0 4 7 15 7
30 1 16 -6 25 -6 25 0 0 6 9 6 25 0 16 -6 25 -6 25 0 0 6 9 6 25 0 14 -5 25
-6 25 -2 0 4 18 7 40 7 22 0 40 -3 40 -7 0 -4 11 -3 25 2 16 6 25 6 25 -1 0
-6 6 -6 19 0 10 6 21 8 24 5 8 -8 57 -12 57 -5 0 3 26 6 58 7 90 2 195 21 297
54 33 11 62 20 65 20 18 -2 259 127 280 150 3 3 21 16 40 30 96 67 209 185
279 290 20 30 39 57 42 60 26 21 140 295 154 370 3 14 7 36 10 50 7 33 14 79
17 118 1 18 6 32 10 32 4 0 4 10 0 23 -4 12 -6 36 -5 52 6 69 6 125 1 131 -3
3 -2 21 2 40 5 19 4 37 -1 40 -5 3 -7 10 -3 15 7 12 8 164 1 176 -3 5 -2 15 2
22 5 7 5 28 1 46 -4 18 -4 39 0 45 4 7 4 26 0 41 -5 16 -5 31 0 34 5 3 5 18 1
33 -4 15 -6 36 -5 47 1 11 3 32 3 48 1 15 1 39 2 55 0 15 0 34 0 42 -1 8 -1
26 0 40 0 14 0 32 0 40 -1 8 -1 26 0 40 0 14 0 32 0 40 -1 8 -1 26 0 40 0 14
0 32 0 40 -1 8 -1 26 0 40 0 14 0 32 0 40 -1 8 -1 26 0 40 0 14 0 32 0 40 -1
8 -1 26 0 40 3 73 -7 197 -26 295 -19 105 -100 335 -117 335 -4 0 -8 9 -8 20
0 11 -3 20 -8 20 -4 0 -18 21 -32 48 -44 83 -151 209 -261 306 -54 48 -216
156 -234 156 -7 0 -15 5 -17 11 -2 5 -10 11 -18 13 -8 1 -28 9 -45 18 -24 12
-87 36 -115 43 -3 1 -12 4 -20 8 -8 3 -28 9 -45 13 -107 26 -174 36 -280 40
-206 8 -295 9 -295 2 0 -4 -6 -5 -14 -2 -20 8 -226 10 -226 3 0 -4 -15 -3 -34
1 -19 4 -39 4 -46 0 -7 -4 -26 -4 -44 0 -17 4 -40 4 -51 0 -11 -4 -31 -4 -45
-1 -14 4 -41 4 -60 1 -19 -3 -52 -3 -73 1 -20 3 -40 2 -43 -2 -3 -5 -9 -7 -14
-4 -12 7 -218 10 -225 3 -3 -3 -23 -2 -45 2 -22 4 -40 4 -40 0 0 -4 -16 -4
-36 -1 -26 4 -39 13 -45 29 -5 12 -5 22 -1 22 4 0 7 29 7 64 0 36 -4 62 -9 58
-5 -3 -6 1 -1 8 4 7 9 31 10 54 4 80 17 176 24 176 4 0 7 8 8 18 2 33 14 77
33 119 10 23 16 44 12 47 -3 3 0 6 6 6 7 0 12 6 12 13 0 20 31 78 99 182 53
80 143 176 236 248 33 26 65 52 72 57 7 6 14 10 17 10 3 0 32 16 65 35 32 19
66 35 75 35 9 0 16 4 16 8 0 5 6 9 13 10 6 0 44 12 82 25 39 14 88 28 110 31
22 4 47 9 56 11 8 3 47 7 86 9 40 2 76 7 82 11 6 3 11 1 11 -5 0 -7 6 -8 19 0
14 7 22 7 26 0 4 -7 11 -7 18 -2 7 5 21 6 32 2 11 -4 30 -4 42 1 12 4 35 4 52
-1 16 -4 32 -5 36 -2 3 3 16 7 28 9 54 7 124 27 147 42 13 9 26 15 27 13 9 -8
116 62 167 109 47 43 140 167 141 188 1 3 6 15 12 26 5 11 16 36 22 56 40 125
41 250 3 384 -6 22 -12 45 -12 50 -1 6 -9 18 -17 28 -9 9 -13 17 -10 17 17 0
-65 113 -128 175 -94 95 -223 160 -350 178 -11 1 -26 6 -32 10 -7 5 -13 4 -13
0 0 -10 -82 -9 -98 1 -6 3 -13 2 -17 -3 -4 -7 -15 -7 -30 -1 -14 5 -25 6 -25
2 0 -8 -63 -8 -77 1 -6 4 -13 4 -16 1z"/>
<path d="M8097 8323 c-3 -2 -36 -6 -74 -8 -81 -4 -179 -13 -213 -20 -14 -3
-42 -7 -64 -10 -21 -3 -66 -12 -99 -21 -34 -8 -69 -16 -79 -17 -10 -1 -18 -5
-18 -10 0 -4 -4 -6 -8 -3 -8 5 -113 -23 -151 -40 -9 -4 -20 -8 -26 -9 -63 -15
-289 -119 -418 -194 -37 -21 -212 -136 -232 -153 -38 -32 -56 -46 -86 -68 -58
-44 -273 -262 -335 -340 -32 -41 -62 -76 -66 -78 -5 -2 -8 -9 -8 -16 0 -7 -9
-21 -20 -31 -11 -10 -20 -24 -20 -31 0 -7 -3 -14 -7 -16 -20 -8 -121 -182
-177 -303 -21 -44 -43 -91 -51 -105 -10 -20 -34 -85 -40 -110 -1 -3 -5 -12 -8
-20 -20 -50 -60 -191 -81 -290 -33 -154 -41 -216 -50 -362 -2 -36 -7 -71 -10
-76 -3 -6 -2 -13 3 -16 5 -3 5 -21 1 -41 -4 -19 -4 -35 0 -35 4 0 4 -17 0 -38
-3 -21 -4 -47 0 -58 4 -10 4 -31 -1 -46 -4 -15 -4 -30 1 -33 5 -3 5 -18 1 -33
-4 -15 -5 -39 -1 -53 4 -15 4 -32 0 -39 -4 -7 -4 -27 0 -45 4 -18 4 -39 0 -45
-4 -7 -4 -26 0 -41 5 -16 5 -31 0 -34 -5 -3 -5 -18 0 -34 4 -15 4 -34 0 -41
-4 -6 -4 -27 0 -45 4 -18 4 -39 0 -45 -4 -7 -4 -26 0 -41 5 -16 5 -31 0 -34
-5 -3 -5 -18 0 -34 4 -15 4 -34 0 -41 -4 -6 -4 -27 0 -46 4 -19 4 -36 0 -39
-5 -3 -5 -18 -1 -33 5 -15 5 -36 1 -47 -4 -11 -4 -32 1 -47 4 -15 4 -30 -1
-33 -4 -3 -4 -21 0 -40 4 -19 4 -37 0 -40 -5 -3 -5 -18 -1 -33 5 -15 5 -36 1
-47 -4 -11 -4 -32 1 -47 4 -15 4 -30 -1 -33 -4 -3 -4 -21 0 -40 4 -19 4 -37 0
-40 -5 -3 -5 -18 -1 -33 5 -15 5 -36 1 -47 -4 -11 -4 -29 0 -41 5 -11 5 -27 0
-34 -4 -7 -4 -25 0 -40 4 -15 4 -33 0 -40 -4 -6 -4 -27 0 -45 4 -18 4 -39 0
-45 -4 -7 -4 -26 0 -41 5 -16 5 -31 0 -34 -5 -3 -5 -18 0 -34 4 -15 4 -34 0
-41 -4 -6 -4 -27 0 -45 4 -18 4 -39 0 -45 -4 -7 -4 -26 0 -41 5 -16 5 -31 0
-34 -5 -3 -5 -18 -1 -33 4 -15 6 -36 5 -47 -1 -11 -3 -32 -3 -47 -1 -16 -1
-40 -2 -55 0 -16 0 -35 0 -43 1 -8 1 -26 0 -40 0 -14 0 -32 0 -40 1 -8 1 -26
0 -40 0 -14 0 -32 0 -40 1 -8 1 -26 0 -40 0 -14 0 -32 0 -40 1 -8 1 -26 0 -40
0 -14 0 -32 0 -40 1 -8 1 -26 0 -40 0 -14 0 -32 0 -40 1 -8 1 -26 0 -40 -2
-60 7 -204 17 -250 3 -14 7 -39 9 -56 8 -67 110 -341 135 -364 3 -3 19 -27 35
-55 51 -90 161 -218 256 -297 24 -21 50 -43 57 -49 63 -53 251 -155 327 -178
22 -7 49 -16 60 -21 66 -27 193 -51 290 -54 28 -1 56 -5 62 -9 6 -4 14 -3 17
2 4 5 18 6 34 2 15 -5 37 -4 50 0 13 5 22 4 22 -1 0 -6 9 -6 25 0 15 6 26 6
30 0 4 -6 13 -7 23 -1 11 6 24 6 34 0 10 -6 19 -6 23 0 4 7 15 7 30 1 15 -6
25 -6 25 0 0 5 12 5 30 0 18 -5 32 -5 35 1 4 5 14 5 25 -1 13 -7 21 -7 25 0 4
7 13 7 26 0 10 -6 19 -7 19 -3 0 10 63 8 79 -2 6 -3 11 -2 11 4 0 7 8 7 23 2
13 -5 30 -5 37 -1 8 5 21 5 30 0 9 -5 22 -5 30 0 8 5 21 5 31 -1 11 -5 20 -5
24 0 3 5 17 6 33 2 15 -5 37 -4 50 0 13 5 22 4 22 -1 0 -6 9 -6 25 0 15 6 26
6 30 0 4 -6 13 -7 23 -1 11 6 24 6 34 0 10 -6 19 -6 22 0 4 5 18 6 34 2 15 -5
37 -4 50 0 13 5 22 4 22 -1 0 -6 9 -6 25 0 15 6 26 6 30 -1 4 -6 13 -6 23 0
10 6 23 6 34 0 10 -6 19 -5 23 1 4 6 15 6 30 0 15 -6 25 -6 25 0 0 5 12 5 29
0 16 -4 32 -6 35 -3 3 3 34 7 68 8 103 4 190 21 311 61 73 24 256 108 267 123
3 3 30 22 60 42 167 111 328 298 416 484 16 33 33 63 37 66 5 3 8 8 6 10 -1 2
8 35 20 72 13 37 24 75 26 85 2 9 4 17 6 17 1 0 3 9 5 20 1 11 5 31 8 45 4 14
9 41 13 60 4 19 8 386 9 815 2 650 0 793 -12 855 -8 41 -16 85 -19 97 -2 13
-6 26 -9 31 -3 5 -7 22 -10 38 -3 16 -22 67 -42 114 -20 47 -41 97 -47 113 -6
15 -15 27 -19 27 -4 0 -8 5 -8 11 0 6 -26 48 -57 93 -65 93 -127 163 -219 246
-40 37 -47 42 -140 104 -71 48 -255 136 -283 136 -11 0 -22 4 -25 9 -3 5 -18
11 -33 14 -50 9 -88 18 -108 24 -27 8 -64 12 -174 17 -51 3 -95 7 -97 9 -3 2
-22 1 -44 -3 -21 -4 -44 -4 -50 0 -7 4 -27 4 -46 0 -18 -4 -35 -5 -38 -2 -7 6
-95 7 -102 0 -2 -3 -23 -2 -44 2 -22 4 -43 4 -46 -1 -2 -4 -10 -6 -17 -3 -21
8 -147 9 -147 2 0 -4 -6 -5 -12 -3 -24 9 -83 11 -116 4 -17 -4 -34 -3 -37 1
-3 4 -21 4 -40 0 -19 -4 -37 -4 -40 0 -3 4 -21 4 -40 0 -19 -4 -37 -4 -40 0
-3 4 -20 5 -37 1 -18 -4 -48 -4 -66 0 -18 3 -34 3 -37 -1 -3 -4 -21 -4 -40 0
-19 4 -37 4 -40 0 -2 -4 -23 -4 -45 0 -22 4 -40 5 -40 1 0 -3 -20 -6 -44 -6
-39 0 -43 2 -41 23 1 12 -2 22 -6 22 -5 0 -4 11 1 25 6 15 6 27 0 30 -6 3 -6
15 0 30 6 17 6 25 -1 25 -6 0 -7 6 0 17 5 10 5 26 1 39 -5 12 -7 24 -5 26 4 4
15 58 20 103 6 55 37 172 62 235 3 8 5 18 5 23 -1 4 3 7 10 7 6 0 9 3 5 6 -11
11 76 160 147 249 77 97 166 178 266 242 36 23 71 47 78 53 6 6 12 8 12 5 0
-4 17 3 38 14 89 49 275 100 376 104 36 1 66 6 66 10 0 4 8 3 18 -2 10 -5 24
-6 32 -1 8 5 21 5 31 -1 11 -6 20 -5 24 1 4 6 15 6 30 0 14 -5 25 -6 25 -2 0
4 11 7 25 7 14 0 25 -4 25 -8 0 -5 4 -6 9 -2 5 3 30 8 54 10 90 11 179 38 211
65 10 8 20 13 22 10 7 -10 128 86 175 139 53 59 110 161 130 231 7 25 14 52
17 60 8 27 9 235 1 250 -4 8 -10 32 -13 52 -8 53 -81 187 -134 249 -63 71
-146 131 -238 169 -76 31 -97 36 -182 44 -24 3 -46 7 -49 10 -3 2 -16 1 -29
-4 -15 -6 -24 -6 -24 0 0 6 -9 6 -24 0 -15 -5 -27 -5 -34 2 -6 6 -12 6 -16 -1
-5 -8 -13 -8 -27 -1 -12 7 -19 7 -19 1 0 -6 -11 -6 -29 -1 -16 4 -32 6 -34 3z"/>
</g>
</svg>
